{"title":"Reconstituirea (The Reenactment) 1968 DVDRip XviD MP3 Idiocracy","uid":12004254,"size":1027442656,"categoryP":"video","categoryS":"movies","magnet":"?xt=urn:btih:e5189f6ee9f90bf83063b2569fd203a32ff3e756&amp;dn=Reconstituirea+%28The+Reenactment%29+1968+DVDRip+XviD+MP3+Idiocracy&amp;tr=udp%3A%2F%2Ftracker.openbittorrent.com%3A80&amp;tr=udp%3A%2F%2Fopen.demonii.com%3A1337&amp;tr=udp%3A%2F%2Ftracker.coppersurfer.tk%3A6969&amp;tr=udp%3A%2F%2Fexodus.desync.com%3A6969","seeders":0,"leechers":0,"uploader":"Satafakap","files":9,"time":1433844183,"description":"Synopsis / Plot\n\nThe film concerns, as the title indicates, a reenactment. Two drunken teenagers get into a brutal bar fight and are brought before judicial authorities. Neither boy has had any prior trouble with the law, so the magistrate lets them off, but only on the condition that they film a reenactment of their fateful evening as a warning to other teens. In the course of the fictional filming, the youngsters experience very keenly their real feelings about their lives and the society they live in.\n\nDirector: Lucian Pintilie\nWriters: Horia Patrascu (novel), Horia Patrascu (screenplay)\nStars: George Constantin, Emil Botta, George Mihaita \n &lt;a href=&quot;\nhttp://www.imdb.com/title/tt0063493/&quot; rel=&quot;nofollow&quot; target=&quot;_NEW&quot;&gt;\nhttp://www.imdb.com/title/tt0063493/&lt;/a&gt;\n\nGeneral\n\nComplete name       : Reconstituirea.1968.DVDRip.XviD.MP3-Idiocracy.avi\nFormat              : AVI\nFormat/Info         : Audio Video Interleave\nFile size           : 972 MiB\nDuration            : 1h 39mn\nOverall bit rate    : 1 371 Kbps\nWriting application : VirtualDubMod 1.5.10.3 | www.virtualdub-fr.org\nWriting library     : VirtualDubMod build 2550/release\nSource              : Reconstituirea (Lucian Pintilie, 1968) - Thanks!\nSample              : Yes\n\nVideo\n\nID                                       : 0\nFormat                                   : MPEG-4 Visual\nFormat profile                           : Advanced Simple@L5\nFormat settings, BVOP                    : 2\nFormat settings, QPel                    : No\nFormat settings, GMC                     : No warppoints\nFormat settings, Matrix                  : Default (H.263)\nMuxing mode                              : Packed bitstream\nCodec ID                                 : XVID\nCodec ID/Hint                            : XviD\nDuration                                 : 1h 39mn\nBit rate                                 : 1 233 Kbps\nWidth                                    : 640 pixels\nHeight                                   : 480 pixels\nDisplay aspect ratio                     : 4:3\nFrame rate                               : 25.000 fps\nColor space                              : YUV\nChroma subsampling                       : 4:2:0\nBit depth                                : 8 bits\nScan type                                : Progressive\nCompression mode                         : Lossy\nBits/(Pixel*Frame)                       : 0.161\nStream size                              : 875 MiB (90%)\nWriting library                          : XviD 64\n\nAudio\n\nID                                       : 1\nFormat                                   : MPEG Audio\nFormat version                           : Version 1\nFormat profile                           : Layer 3\nMode                                     : Joint stereo\nMode extension                           : MS Stereo\nCodec ID                                 : 55\nCodec ID/Hint                            : MP3\nDuration                                 : 1h 39mn\nBit rate mode                            : Constant\nBit rate                                 : 128 Kbps\nChannel(s)                               : 2 channels\nSampling rate                            : 48.0 KHz\nCompression mode                         : Lossy\nStream size                              : 90.8 MiB (9%)\nAlignment                                : Split accross interleaves\nInterleave, duration                     : 40 ms (1.00 video frame)\nInterleave, preload duration             : 500 ms\n\n\nScreenshots:\n &lt;a href=&quot;\nhttp://i.imgur.com/ukSWo3d.jpg&quot; rel=&quot;nofollow&quot; target=&quot;_NEW&quot;&gt;\nhttp://i.imgur.com/ukSWo3d.jpg&lt;/a&gt;\n &lt;a href=&quot;\nhttp://i.imgur.com/rEHM38E.jpg&quot; rel=&quot;nofollow&quot; target=&quot;_NEW&quot;&gt;\nhttp://i.imgur.com/rEHM38E.jpg&lt;/a&gt;\n &lt;a href=&quot;\nhttp://i.imgur.com/8w4SvCI.jpg&quot; rel=&quot;nofollow&quot; target=&quot;_NEW&quot;&gt;\nhttp://i.imgur.com/8w4SvCI.jpg&lt;/a&gt;\n &lt;a href=&quot;\nhttp://i.imgur.com/zr9uVJz.jpg&quot; rel=&quot;nofollow&quot; target=&quot;_NEW&quot;&gt;\nhttp://i.imgur.com/zr9uVJz.jpg&lt;/a&gt;\n &lt;a href=&quot;\nhttp://i.imgur.com/sFeus8d.jpg&quot; rel=&quot;nofollow&quot; target=&quot;_NEW&quot;&gt;\nhttp://i.imgur.com/sFeus8d.jpg&lt;/a&gt;","torrent":{"xt":"urn:btih:e5189f6ee9f90bf83063b2569fd203a32ff3e756","amp;dn":"Reconstituirea+%28The+Reenactment%29+1968+DVDRip+XviD+MP3+Idiocracy","amp;tr":["udp%3A%2F%2Ftracker.openbittorrent.com%3A80","udp%3A%2F%2Fopen.demonii.com%3A1337","udp%3A%2F%2Ftracker.coppersurfer.tk%3A6969","udp%3A%2F%2Fexodus.desync.com%3A6969"],"infoHash":"e5189f6ee9f90bf83063b2569fd203a32ff3e756","infoHashBuffer":{"type":"Buffer","data":[229,24,159,110,233,249,11,248,48,99,178,86,159,210,3,163,47,243,231,86]},"announce":[],"urlList":[]}}